<?xml version="1.0" standalone="no"?><!DOCTYPE svg PUBLIC "-//W3C//DTD SVG 1.1//EN" "http://www.w3.org/Graphics/SVG/1.1/DTD/svg11.dtd"><svg width="100%" height="100%" viewBox="0 0 96 96" version="1.1" xmlns="http://www.w3.org/2000/svg" xmlns:xlink="http://www.w3.org/1999/xlink" xml:space="preserve" style="fill-rule:evenodd;clip-rule:evenodd;stroke-linejoin:round;stroke-miterlimit:1.41421;"><path d="M81.249,9.655C81.249,7.086 79.163,5 76.594,5L19.406,5C16.837,5 14.751,7.086 14.751,9.655L14.751,86.345C14.751,88.914 16.837,91 19.406,91L76.594,91C79.163,91 81.249,88.914 81.249,86.345L81.249,9.655Z" style="fill:#00487f;"/><g><path d="M81.249,71.874L81.249,82.095L14.751,82.095L14.751,72.2L48.631,13.905L81.249,71.874Z" style="fill:#15598e;"/><path d="M15.357,79.849L48.561,22.352L52.228,28.689L33.901,60.549L45.077,79.849L15.357,79.849Z" style="fill:#27a1fa;"/><path d="M78.086,73.583L43.289,73.583L36.139,61.289L71.071,61.289L78.086,73.583Z" style="fill:#27a1fa;"/><path d="M70.179,59.75L48.782,59.75L42.34,48.714L53.127,30.337L70.179,59.75Z" style="fill:#27a1fa;"/><path d="M46.885,59.75L41.441,50.262C41.441,50.262 38.311,55.555 37.896,56.255C37.444,57.016 37.2,57.765 37.646,58.602C38.019,59.302 38.657,59.75 39.544,59.75C40.251,59.75 46.885,59.75 46.885,59.75Z" style="fill:#1cffb9;"/></g><g><path d="M28.313,37.65C26.52,37.65 25.069,37.155 23.962,36.165C22.854,35.175 22.301,33.748 22.301,31.885C22.301,29.881 22.957,28.396 24.27,27.429C25.582,26.462 27.563,25.85 30.211,25.592C30.574,25.545 30.967,25.498 31.389,25.451C31.811,25.404 32.285,25.357 32.813,25.311C33.34,25.264 33.756,25.223 34.061,25.187L34.061,24.168C34.061,22.996 33.791,22.144 33.252,21.61C32.713,21.077 31.893,20.811 30.791,20.811C29.221,20.811 27.281,21.25 24.973,22.129C24.961,22.094 24.768,21.561 24.393,20.529C24.018,19.498 23.824,18.971 23.813,18.947C26.086,17.975 28.547,17.488 31.195,17.488C33.797,17.488 35.689,18.054 36.873,19.185C38.057,20.315 38.648,22.146 38.648,24.678L38.648,37.281L35.238,37.281C35.227,37.234 35.098,36.842 34.852,36.104C34.605,35.365 34.482,34.973 34.482,34.926C33.521,35.863 32.581,36.552 31.661,36.991C30.741,37.431 29.625,37.65 28.313,37.65ZM29.561,34.381C30.627,34.381 31.556,34.126 32.347,33.616C33.138,33.106 33.703,32.488 34.043,31.762L34.043,28.035C34.008,28.035 33.7,28.059 33.12,28.105C32.54,28.152 32.227,28.176 32.18,28.176C30.316,28.34 28.951,28.691 28.084,29.23C27.217,29.77 26.783,30.637 26.783,31.832C26.783,32.652 27.023,33.282 27.504,33.722C27.984,34.161 28.67,34.381 29.561,34.381Z" style="fill:#80ffd7;fill-rule:nonzero;"/><path d="M44.52,37.281L44.52,21.021L41.461,21.021L41.76,18.314L44.52,17.963L44.52,16.891C44.52,15.719 44.628,14.717 44.845,13.885C45.062,13.053 45.416,12.341 45.908,11.749C46.4,11.157 47.06,10.718 47.886,10.431C48.712,10.144 49.729,10 50.936,10C52.107,10 53.303,10.111 54.521,10.334L54.117,13.762C53.156,13.633 52.4,13.568 51.85,13.568C50.865,13.568 50.165,13.806 49.749,14.28C49.333,14.755 49.125,15.543 49.125,16.645L49.125,17.963L53.66,17.963L53.66,21.021L49.125,21.021L49.125,37.281L44.52,37.281Z" style="fill:#80ffd7;fill-rule:nonzero;"/><path d="M63.469,37.65C60.949,37.65 58.969,36.725 57.527,34.873C56.086,33.021 55.365,30.549 55.365,27.455C55.365,24.455 56.083,22.044 57.519,20.222C58.954,18.399 60.932,17.488 63.451,17.488C66.193,17.488 68.133,18.461 69.27,20.406C69.152,19.258 69.094,18.15 69.094,17.084L69.094,10.844L73.699,10.545L73.699,37.281L69.709,37.281L69.199,34.645C69,34.961 68.815,35.233 68.646,35.462C68.476,35.69 68.227,35.954 67.898,36.253C67.57,36.552 67.216,36.792 66.835,36.974C66.454,37.155 65.974,37.313 65.394,37.448C64.813,37.583 64.172,37.65 63.469,37.65ZM64.559,34.152C67.652,34.152 69.223,32.049 69.27,27.842C69.27,25.463 68.871,23.729 68.074,22.639C67.277,21.549 66.088,21.004 64.506,21.004C63.123,21.004 62.019,21.558 61.192,22.665C60.366,23.772 59.953,25.404 59.953,27.561C59.953,29.705 60.366,31.34 61.192,32.465C62.019,33.59 63.141,34.152 64.559,34.152Z" style="fill:#80ffd7;fill-rule:nonzero;"/></g></svg>