<?xml version="1.0" standalone="no"?><!DOCTYPE svg PUBLIC "-//W3C//DTD SVG 1.1//EN" "http://www.w3.org/Graphics/SVG/1.1/DTD/svg11.dtd"><svg width="100%" height="100%" viewBox="0 0 96 96" version="1.1" xmlns="http://www.w3.org/2000/svg" xmlns:xlink="http://www.w3.org/1999/xlink" xml:space="preserve" style="fill-rule:evenodd;clip-rule:evenodd;stroke-linejoin:round;stroke-miterlimit:1.41421;"><path d="M81.249,9.655C81.249,7.086 79.163,5 76.594,5L19.406,5C16.837,5 14.751,7.086 14.751,9.655L14.751,86.345C14.751,88.914 16.837,91 19.406,91L76.594,91C79.163,91 81.249,88.914 81.249,86.345L81.249,9.655Z" style="fill:#00487f;"/><g><path d="M81.249,71.874L81.249,82.095L14.751,82.095L14.751,72.2L48.631,13.905L81.249,71.874Z" style="fill:#15598e;"/><path d="M15.357,79.849L48.561,22.352L52.228,28.689L33.901,60.549L45.077,79.849L15.357,79.849Z" style="fill:#27a1fa;"/><path d="M78.086,73.583L43.289,73.583L36.139,61.289L71.071,61.289L78.086,73.583Z" style="fill:#27a1fa;"/><path d="M70.179,59.75L48.782,59.75L42.34,48.714L53.127,30.337L70.179,59.75Z" style="fill:#27a1fa;"/><path d="M46.885,59.75L41.441,50.262C41.441,50.262 38.311,55.555 37.896,56.255C37.444,57.016 37.2,57.765 37.646,58.602C38.019,59.302 38.657,59.75 39.544,59.75C40.251,59.75 46.885,59.75 46.885,59.75Z" style="fill:#1cffb9;"/></g></svg>