<?xml version="1.0" standalone="no"?><!DOCTYPE svg PUBLIC "-//W3C//DTD SVG 1.1//EN" "http://www.w3.org/Graphics/SVG/1.1/DTD/svg11.dtd"><svg width="100%" height="100%" viewBox="0 0 96 96" version="1.1" xmlns="http://www.w3.org/2000/svg" xmlns:xlink="http://www.w3.org/1999/xlink" xml:space="preserve" style="fill-rule:evenodd;clip-rule:evenodd;stroke-linejoin:round;stroke-miterlimit:1.41421;"><path d="M91,11.02C91,7.697 88.303,5 84.98,5L11.02,5C7.697,5 5,7.697 5,11.02L5,84.98C5,88.303 7.697,91 11.02,91L84.98,91C88.303,91 91,88.303 91,84.98L91,11.02Z" style="fill:#00487f;"/><g><path d="M9,82.095L48.631,13.905L87,82.095L9,82.095Z" style="fill:#15598e;"/><path d="M15.357,79.849L48.561,22.352L52.228,28.689L33.901,60.549L45.077,79.849L15.357,79.849Z" style="fill:#27a1fa;"/><path d="M78.086,73.583L43.289,73.583L36.139,61.289L71.071,61.289L78.086,73.583Z" style="fill:#27a1fa;"/><path d="M70.179,59.75L48.782,59.75L42.34,48.714L53.127,30.337L70.179,59.75Z" style="fill:#27a1fa;"/><path d="M46.885,59.75L41.441,50.262C41.441,50.262 38.311,55.555 37.896,56.255C37.444,57.016 37.2,57.765 37.646,58.602C38.019,59.302 38.657,59.75 39.544,59.75C40.251,59.75 46.885,59.75 46.885,59.75Z" style="fill:#1cffb9;"/></g></svg>