<?xml version="1.0" standalone="no"?><!DOCTYPE svg PUBLIC "-//W3C//DTD SVG 1.1//EN" "http://www.w3.org/Graphics/SVG/1.1/DTD/svg11.dtd"><svg width="100%" height="100%" viewBox="0 0 96 96" version="1.1" xmlns="http://www.w3.org/2000/svg" xmlns:xlink="http://www.w3.org/1999/xlink" xml:space="preserve" style="fill-rule:evenodd;clip-rule:evenodd;stroke-linejoin:round;stroke-miterlimit:1.41421;"><path d="M81.25,9.655C81.25,7.086 79.164,5 76.595,5L19.405,5C16.836,5 14.75,7.086 14.75,9.655L14.75,86.345C14.75,88.914 16.836,91 19.405,91L76.595,91C79.164,91 81.25,88.914 81.25,86.345L81.25,9.655Z" style="fill:#5a0096;"/><g id="Layer1"><path d="M81.25,71.8L81.25,81.765L14.75,81.765L14.75,71.818L48.035,14.235L81.25,71.8Z" style="fill:#8d00bb;"/><path d="M15.171,79.685L29.107,55.629L36.317,55.629L22.451,79.685L15.171,79.685Z" style="fill:#fb6de5;"/><path d="M36.525,42.731L43.043,54.032L30.005,54.032L36.525,42.731Z" style="fill:#fb6de5;"/><path d="M37.427,41.205L48.035,22.763L58.296,40.651L47.755,59.093L37.427,41.205Z" style="fill:#fb6de5;"/><path d="M59.232,42.245L45.747,65.611L72.717,65.611L59.232,42.245Z" style="fill:#fb6de5;"/><path d="M73.619,67.136L39.021,67.136L42.765,73.515L77.293,73.515L73.619,67.136Z" style="fill:#fb6de5;"/><path d="M44.499,79.685L34.411,62.144L24.323,79.685L44.499,79.685Z" style="fill:#fb6de5;"/><path d="M45.332,57.953C46.526,59.967 47.065,60.337 45.53,62.947C43.996,65.556 43.933,65.666 41.13,65.666C38.022,65.666 38.158,65.503 36.729,63.045C35.048,60.153 35.5,60.416 36.779,58.052C38.209,55.407 38.334,55.58 41.229,55.58C44.079,55.58 44.054,55.796 45.332,57.953Z" style="fill:#44014c;"/></g><g><path d="M27.68,37.65C25.887,37.65 24.437,37.155 23.329,36.165C22.222,35.175 21.668,33.748 21.668,31.885C21.668,29.881 22.324,28.396 23.637,27.429C24.949,26.462 26.93,25.85 29.578,25.592C29.941,25.545 30.334,25.498 30.756,25.451C31.178,25.404 31.652,25.357 32.18,25.311C32.707,25.264 33.123,25.223 33.428,25.187L33.428,24.168C33.428,22.996 33.158,22.144 32.619,21.61C32.08,21.077 31.26,20.811 30.158,20.811C28.588,20.811 26.648,21.25 24.34,22.129C24.328,22.094 24.135,21.561 23.76,20.529C23.385,19.498 23.191,18.971 23.18,18.947C25.453,17.975 27.914,17.488 30.563,17.488C33.164,17.488 35.057,18.054 36.24,19.185C37.424,20.315 38.016,22.146 38.016,24.678L38.016,37.281L34.605,37.281C34.594,37.234 34.465,36.842 34.219,36.104C33.973,35.365 33.85,34.973 33.85,34.926C32.889,35.863 31.948,36.552 31.028,36.991C30.108,37.431 28.992,37.65 27.68,37.65ZM28.928,34.381C29.994,34.381 30.923,34.126 31.714,33.616C32.505,33.106 33.07,32.488 33.41,31.762L33.41,28.035C33.375,28.035 33.067,28.059 32.487,28.105C31.907,28.152 31.594,28.176 31.547,28.176C29.684,28.34 28.318,28.691 27.451,29.23C26.584,29.77 26.15,30.637 26.15,31.832C26.15,32.652 26.391,33.282 26.871,33.722C27.352,34.161 28.037,34.381 28.928,34.381Z" style="fill:#fecff7;fill-rule:nonzero;"/><path d="M43.887,37.281L43.887,21.021L40.828,21.021L41.127,18.314L43.887,17.963L43.887,16.891C43.887,15.719 43.995,14.717 44.212,13.885C44.429,13.053 44.783,12.341 45.275,11.749C45.768,11.157 46.427,10.718 47.253,10.431C48.079,10.144 49.096,10 50.303,10C51.475,10 52.67,10.111 53.889,10.334L53.484,13.762C52.523,13.633 51.768,13.568 51.217,13.568C50.232,13.568 49.532,13.806 49.116,14.28C48.7,14.755 48.492,15.543 48.492,16.645L48.492,17.963L53.027,17.963L53.027,21.021L48.492,21.021L48.492,37.281L43.887,37.281Z" style="fill:#fecff7;fill-rule:nonzero;"/><path d="M56.016,45.314L56.016,17.963L59.971,17.963L60.463,20.67C61.096,19.65 61.937,18.862 62.985,18.306C64.034,17.749 65.203,17.471 66.492,17.471C68.074,17.471 69.466,17.91 70.667,18.789C71.868,19.668 72.779,20.866 73.4,22.384C74.021,23.901 74.332,25.615 74.332,27.525C74.332,30.514 73.608,32.948 72.161,34.829C70.714,36.71 68.754,37.65 66.281,37.65C65.063,37.65 63.958,37.407 62.968,36.921C61.978,36.435 61.148,35.775 60.48,34.943C60.574,36.631 60.621,37.58 60.621,37.791L60.621,45.086L56.016,45.314ZM65.297,34.135C66.668,34.135 67.749,33.561 68.54,32.412C69.331,31.264 69.727,29.623 69.727,27.49C69.727,25.322 69.328,23.693 68.531,22.604C67.734,21.514 66.627,20.969 65.209,20.969C62.162,20.969 60.621,23.043 60.586,27.191C60.586,29.582 60.981,31.337 61.772,32.456C62.563,33.575 63.738,34.135 65.297,34.135Z" style="fill:#fecff7;fill-rule:nonzero;"/></g></svg>