<?xml version="1.0" standalone="no"?><!DOCTYPE svg PUBLIC "-//W3C//DTD SVG 1.1//EN" "http://www.w3.org/Graphics/SVG/1.1/DTD/svg11.dtd"><svg width="100%" height="100%" viewBox="0 0 96 96" version="1.1" xmlns="http://www.w3.org/2000/svg" xmlns:xlink="http://www.w3.org/1999/xlink" xml:space="preserve" style="fill-rule:evenodd;clip-rule:evenodd;stroke-linejoin:round;stroke-miterlimit:1.41421;"><path d="M91,11.02C91,7.697 88.303,5 84.98,5L11.02,5C7.697,5 5,7.697 5,11.02L5,84.98C5,88.303 7.697,91 11.02,91L84.98,91C88.303,91 91,88.303 91,84.98L91,11.02Z" style="fill:#5a0096;"/><g id="Layer1"><path d="M9,81.765L48.035,14.235L87,81.765L9,81.765Z" style="fill:#8d00bb;"/><path d="M15.171,79.685L29.107,55.629L36.317,55.629L22.451,79.685L15.171,79.685Z" style="fill:#fb6de5;"/><path d="M36.525,42.731L43.043,54.032L30.005,54.032L36.525,42.731Z" style="fill:#fb6de5;"/><path d="M37.427,41.205L48.035,22.763L58.296,40.651L47.755,59.093L37.427,41.205Z" style="fill:#fb6de5;"/><path d="M59.232,42.245L45.747,65.611L72.717,65.611L59.232,42.245Z" style="fill:#fb6de5;"/><path d="M73.619,67.136L39.021,67.136L42.765,73.515L77.293,73.515L73.619,67.136Z" style="fill:#fb6de5;"/><path d="M44.499,79.685L34.411,62.144L24.323,79.685L44.499,79.685Z" style="fill:#fb6de5;"/><path d="M45.332,57.953C46.526,59.967 47.065,60.337 45.53,62.947C43.996,65.556 43.933,65.666 41.13,65.666C38.022,65.666 38.158,65.503 36.729,63.045C35.048,60.153 35.5,60.416 36.779,58.052C38.209,55.407 38.334,55.58 41.229,55.58C44.079,55.58 44.054,55.796 45.332,57.953Z" style="fill:#44014c;"/></g></svg>