<?xml version="1.0" standalone="no"?><!DOCTYPE svg PUBLIC "-//W3C//DTD SVG 1.1//EN" "http://www.w3.org/Graphics/SVG/1.1/DTD/svg11.dtd"><svg width="100%" height="100%" viewBox="0 0 96 96" version="1.1" xmlns="http://www.w3.org/2000/svg" xmlns:xlink="http://www.w3.org/1999/xlink" xml:space="preserve" style="fill-rule:evenodd;clip-rule:evenodd;stroke-linejoin:round;stroke-miterlimit:1.41421;"><g id="Layer1"><path d="M81.25,24L62.25,5L19.405,5C16.836,5 14.75,7.086 14.75,9.655L14.75,86.345C14.75,88.914 16.836,91 19.405,91L76.595,91C79.164,91 81.25,88.914 81.25,86.345L81.25,24Z" style="fill:#f26b59;"/><path d="M81.25,24L62.25,5L62.25,19.25C62.25,21.872 64.378,24 67,24L81.25,24Z" style="fill:#fac3bc;"/><path d="M67,24L66.939,24L66.877,23.998L66.817,23.997L66.756,23.994L66.695,23.99L66.635,23.986L66.575,23.981L66.515,23.975L66.455,23.969L66.395,23.962L66.336,23.954L66.277,23.945L66.16,23.926L66.043,23.903L65.928,23.878L65.813,23.85L65.7,23.82L65.588,23.786L65.477,23.75L65.367,23.712L65.259,23.67L65.152,23.626L65.046,23.58L64.941,23.531L64.838,23.48L64.737,23.426L64.636,23.37L64.538,23.312L64.441,23.251L64.345,23.188L64.251,23.123L64.159,23.056L64.068,22.986L63.979,22.915L63.892,22.841L63.807,22.765L63.723,22.688L63.642,22.608L63.562,22.527L63.485,22.443L63.409,22.358L63.335,22.271L63.264,22.182L63.194,22.091L63.127,21.999L63.062,21.905L62.999,21.809L62.938,21.712L62.88,21.614L62.824,21.513L62.77,21.412L62.719,21.309L62.67,21.204L62.624,21.098L62.58,20.991L62.538,20.883L62.5,20.773L62.464,20.662L62.43,20.55L62.4,20.437L62.372,20.322L62.347,20.207L62.324,20.09L62.305,19.973L62.296,19.914L62.288,19.855L62.281,19.795L62.275,19.735L62.269,19.675L62.264,19.615L62.26,19.555L62.256,19.494L62.253,19.433L62.252,19.373L62.25,19.311L62.25,19.25L62.25,5L81.25,24L67,24ZM67.002,23.5L80.043,23.5L62.75,6.207L62.75,19.248L62.75,19.305L62.751,19.36L62.753,19.414L62.756,19.469L62.759,19.523L62.762,19.577L62.767,19.631L62.772,19.685L62.778,19.738L62.784,19.792L62.791,19.845L62.799,19.896L62.816,20.002L62.836,20.106L62.859,20.21L62.884,20.312L62.911,20.413L62.941,20.513L62.973,20.612L63.008,20.71L63.045,20.807L63.084,20.903L63.125,20.998L63.169,21.091L63.215,21.184L63.263,21.275L63.313,21.364L63.365,21.453L63.42,21.539L63.476,21.625L63.534,21.709L63.595,21.792L63.657,21.873L63.721,21.952L63.787,22.03L63.855,22.107L63.924,22.181L63.995,22.255L64.069,22.326L64.143,22.395L64.22,22.463L64.298,22.529L64.377,22.593L64.458,22.655L64.541,22.716L64.625,22.774L64.711,22.83L64.797,22.885L64.886,22.937L64.975,22.987L65.066,23.035L65.159,23.081L65.252,23.125L65.347,23.166L65.443,23.205L65.54,23.242L65.638,23.277L65.737,23.309L65.837,23.339L65.938,23.366L66.04,23.391L66.144,23.414L66.248,23.434L66.354,23.451L66.405,23.459L66.459,23.466L66.512,23.472L66.565,23.478L66.619,23.483L66.673,23.488L66.727,23.491L66.781,23.494L66.836,23.497L66.89,23.499L66.945,23.5L67.002,23.5Z" style="fill:#8c8c8c;"/></g></svg>