<?xml version="1.0" standalone="no"?><!DOCTYPE svg PUBLIC "-//W3C//DTD SVG 1.1//EN" "http://www.w3.org/Graphics/SVG/1.1/DTD/svg11.dtd"><svg width="100%" height="100%" viewBox="0 0 96 96" version="1.1" xmlns="http://www.w3.org/2000/svg" xmlns:xlink="http://www.w3.org/1999/xlink" xml:space="preserve" style="fill-rule:evenodd;clip-rule:evenodd;stroke-linejoin:round;stroke-miterlimit:1.41421;"><path d="M81.25,9.655C81.25,7.086 79.164,5 76.595,5L19.405,5C16.836,5 14.75,7.086 14.75,9.655L14.75,86.345C14.75,88.914 16.836,91 19.405,91L76.595,91C79.164,91 81.25,88.914 81.25,86.345L81.25,9.655Z" style="fill:#d2dcbb;"/><path d="M37.265,91C37.265,91 35.118,89.728 35.118,74.897C35.118,60.425 32.847,47.573 17.941,25.515C37.058,37.12 43.706,77.044 43.706,77.044C43.706,77.044 51.752,41.613 73.765,18C57.319,45.112 59.809,83.485 59.809,83.485C59.809,83.485 67.189,54.459 78.059,50.206C65.728,65.088 66.25,91 66.25,91L37.265,91Z" style="fill:#90a959;"/></svg>