<?xml version="1.0" standalone="no"?><!DOCTYPE svg PUBLIC "-//W3C//DTD SVG 1.1//EN" "http://www.w3.org/Graphics/SVG/1.1/DTD/svg11.dtd"><svg width="100%" height="100%" viewBox="0 0 96 96" version="1.1" xmlns="http://www.w3.org/2000/svg" xmlns:xlink="http://www.w3.org/1999/xlink" xml:space="preserve" style="fill-rule:evenodd;clip-rule:evenodd;stroke-linejoin:round;stroke-miterlimit:1.41421;"><path d="M81.25,9.655C81.25,7.086 79.164,5 76.595,5L19.405,5C16.836,5 14.75,7.086 14.75,9.655L14.75,86.345C14.75,88.914 16.836,91 19.405,91L76.595,91C79.164,91 81.25,88.914 81.25,86.345L81.25,9.655Z" style="fill:#5a0096;"/><g id="Layer1"><path d="M81.25,71.8L81.25,81.765L14.75,81.765L14.75,71.818L48.035,14.235L81.25,71.8Z" style="fill:#8d00bb;"/><path d="M15.171,79.685L29.107,55.629L36.317,55.629L22.451,79.685L15.171,79.685Z" style="fill:#fb6de5;"/><path d="M36.525,42.731L43.043,54.032L30.005,54.032L36.525,42.731Z" style="fill:#fb6de5;"/><path d="M37.427,41.205L48.035,22.763L58.296,40.651L47.755,59.093L37.427,41.205Z" style="fill:#fb6de5;"/><path d="M59.232,42.245L45.747,65.611L72.717,65.611L59.232,42.245Z" style="fill:#fb6de5;"/><path d="M73.619,67.136L39.021,67.136L42.765,73.515L77.293,73.515L73.619,67.136Z" style="fill:#fb6de5;"/><path d="M44.499,79.685L34.411,62.144L24.323,79.685L44.499,79.685Z" style="fill:#fb6de5;"/><path d="M45.332,57.953C46.526,59.967 47.065,60.337 45.53,62.947C43.996,65.556 43.933,65.666 41.13,65.666C38.022,65.666 38.158,65.503 36.729,63.045C35.048,60.153 35.5,60.416 36.779,58.052C38.209,55.407 38.334,55.58 41.229,55.58C44.079,55.58 44.054,55.796 45.332,57.953Z" style="fill:#44014c;"/></g></svg>