<?xml version="1.0" standalone="no"?><!DOCTYPE svg PUBLIC "-//W3C//DTD SVG 1.1//EN" "http://www.w3.org/Graphics/SVG/1.1/DTD/svg11.dtd"><svg width="100%" height="100%" viewBox="0 0 96 96" version="1.1" xmlns="http://www.w3.org/2000/svg" xmlns:xlink="http://www.w3.org/1999/xlink" xml:space="preserve" style="fill-rule:evenodd;clip-rule:evenodd;stroke-linejoin:round;stroke-miterlimit:1.41421;"><path d="M81.25,9.655C81.25,7.086 79.164,5 76.595,5L19.405,5C16.836,5 14.75,7.086 14.75,9.655L14.75,86.345C14.75,88.914 16.836,91 19.405,91L76.595,91C79.164,91 81.25,88.914 81.25,86.345L81.25,9.655Z" style="fill:#359;"/><path d="M62.663,73.5L71.461,22.5L64.129,23.5L58.264,56.5L52.399,24.5L43.601,25.5L37.736,54.5L31.871,26.5L24.539,27.5L33.337,70.5L42.135,71.5L48,41.5L53.865,72.5L62.663,73.5Z" style="fill:#fff;"/></svg>