<?xml version="1.0" standalone="no"?><!DOCTYPE svg PUBLIC "-//W3C//DTD SVG 1.1//EN" "http://www.w3.org/Graphics/SVG/1.1/DTD/svg11.dtd"><svg width="100%" height="100%" viewBox="0 0 96 96" version="1.1" xmlns="http://www.w3.org/2000/svg" xmlns:xlink="http://www.w3.org/1999/xlink" xml:space="preserve" style="fill-rule:evenodd;clip-rule:evenodd;stroke-linejoin:round;stroke-miterlimit:1.41421;"><path d="M81.25,9.655C81.25,7.086 79.164,5 76.595,5L19.405,5C16.836,5 14.75,7.086 14.75,9.655L14.75,86.345C14.75,88.914 16.836,91 19.405,91L76.595,91C79.164,91 81.25,88.914 81.25,86.345L81.25,9.655Z" style="fill:#2b7246;"/><path d="M41.466,47.121L30.914,70.5L40.466,71.5L47.5,55.914L54.534,72.5L65.086,73.5L54.534,47.121L65.086,22.5L54.534,23.5L47.5,40.086L40.466,24.5L30.914,25.5L41.466,47.121Z" style="fill:#fff;"/></svg>