<?xml version="1.0" standalone="no"?><!DOCTYPE svg PUBLIC "-//W3C//DTD SVG 1.1//EN" "http://www.w3.org/Graphics/SVG/1.1/DTD/svg11.dtd"><svg width="100%" height="100%" viewBox="0 0 96 96" version="1.1" xmlns="http://www.w3.org/2000/svg" xmlns:xlink="http://www.w3.org/1999/xlink" xml:space="preserve" style="fill-rule:evenodd;clip-rule:evenodd;stroke-linecap:square;stroke-linejoin:round;stroke-miterlimit:1.41421;"><path d="M81.25,9.655C81.25,7.086 79.164,5 76.595,5L19.405,5C16.836,5 14.75,7.086 14.75,9.655L14.75,86.345C14.75,88.914 16.836,91 19.405,91L76.595,91C79.164,91 81.25,88.914 81.25,86.345L81.25,9.655Z" style="fill:#90a959;"/><path d="M26.5,52.5L35.5,52.5L35.5,43.5L26.5,43.5L26.5,52.5ZM21.5,57.5L21.5,38.5L40.5,38.5L40.5,57.5L21.5,57.5Z" style="fill:#fff;"/><circle cx="65" cy="19" r="7" style="fill:#fff;"/><circle cx="65" cy="77" r="7" style="fill:#fff;"/><path d="M38,41L65,19" style="fill:none;stroke-width:7px;stroke:#fff;"/><path d="M38,55L65,77" style="fill:none;stroke-width:7px;stroke:#fff;"/></svg>