<?xml version="1.0" standalone="no"?><!DOCTYPE svg PUBLIC "-//W3C//DTD SVG 1.1//EN" "http://www.w3.org/Graphics/SVG/1.1/DTD/svg11.dtd"><svg width="100%" height="100%" viewBox="0 0 96 96" version="1.1" xmlns="http://www.w3.org/2000/svg" xmlns:xlink="http://www.w3.org/1999/xlink" xml:space="preserve" style="fill-rule:evenodd;clip-rule:evenodd;stroke-linejoin:round;stroke-miterlimit:1.41421;"><path d="M81.25,9.655C81.25,7.086 79.164,5 76.595,5L19.405,5C16.836,5 14.75,7.086 14.75,9.655L14.75,86.345C14.75,88.914 16.836,91 19.405,91L76.595,91C79.164,91 81.25,88.914 81.25,86.345L81.25,9.655Z" style="fill:#d04626;"/><path d="M33.931,71.523L33.931,25.523L51.517,23.523C57.822,22.856 62.069,29.45 62.069,34.834L62.069,41.868C62.069,47.422 58.201,57.794 42.724,54.937L42.724,72.523L33.931,71.523ZM42.724,46.144L42.724,33.317C50.227,32.152 53.276,31.295 53.276,39.23C53.276,47.166 50.169,46.807 42.724,46.144Z" style="fill:#fff;"/></svg>