<?xml version="1.0" standalone="no"?><!DOCTYPE svg PUBLIC "-//W3C//DTD SVG 1.1//EN" "http://www.w3.org/Graphics/SVG/1.1/DTD/svg11.dtd"><svg width="100%" height="100%" viewBox="0 0 96 96" version="1.1" xmlns="http://www.w3.org/2000/svg" xmlns:xlink="http://www.w3.org/1999/xlink" xml:space="preserve" style="fill-rule:evenodd;clip-rule:evenodd;stroke-linejoin:round;stroke-miterlimit:1.41421;"><path d="M81.25,9.655C81.25,7.086 79.164,5 76.595,5L19.405,5C16.836,5 14.75,7.086 14.75,9.655L14.75,86.345C14.75,88.914 16.836,91 19.405,91L76.595,91C79.164,91 81.25,88.914 81.25,86.345L81.25,9.655Z" style="fill:#ebc9ae;"/><path d="M48,80.5L25.25,74L19.833,15.5L76.167,15.5L70.75,74L48,80.5Z" style="fill:#d28445;"/><path d="M48,68.583L32.833,64.25L31.75,52.333L39.333,52.333L40.417,58.833L48,61L55.583,58.833L56.667,49.083L31.75,49.083L29.583,27.417L66.417,27.417L65.333,35L38.25,35L38.25,41.5L65.333,41.5L63.167,64.25L48,68.583Z" style="fill:#fff;"/></svg>