<?xml version="1.0" standalone="no"?><!DOCTYPE svg PUBLIC "-//W3C//DTD SVG 1.1//EN" "http://www.w3.org/Graphics/SVG/1.1/DTD/svg11.dtd"><svg width="100%" height="100%" viewBox="0 0 96 96" version="1.1" xmlns="http://www.w3.org/2000/svg" xmlns:xlink="http://www.w3.org/1999/xlink" xml:space="preserve" style="fill-rule:evenodd;clip-rule:evenodd;stroke-linejoin:round;stroke-miterlimit:1.41421;"><g id="Layer1"><path d="M81.25,9.655C81.25,7.086 79.164,5 76.595,5L19.405,5C16.836,5 14.75,7.086 14.75,9.655L14.75,86.345C14.75,88.914 16.836,91 19.405,91L76.595,91C79.164,91 81.25,88.914 81.25,86.345L81.25,9.655Z" style="fill:#0c64c2;"/><g><path d="M52.051,59.841C52.051,59.841 55.812,62.333 58.906,62.333C61.999,62.333 62.645,59.624 62.645,59.217C62.645,55.474 52.051,56.411 52.051,47.377C52.051,42.799 54.973,39.275 60.775,39.275C66.578,39.275 67.63,41.145 67.63,41.145L67.63,46.13C67.63,46.13 63.94,44.261 61.399,44.261C58.857,44.261 57.659,46.265 57.659,47.377C57.659,51.698 69.5,49.318 69.5,59.217C69.5,61.357 68.889,66.696 58.906,66.696C54.163,66.696 52.051,64.826 52.051,64.826L52.051,59.841Z" style="fill:#64e5ff;"/><path d="M26.5,66.696L26.5,29.304L38.964,29.304C39.975,29.304 48.935,30.659 48.935,41.768C48.935,49.332 44.512,53.609 37.717,53.609C34.159,53.609 32.732,53.609 32.732,53.609L32.732,66.696L26.5,66.696ZM32.732,48.623L32.732,34.913C32.732,34.913 34.406,34.913 36.471,34.913C38.537,34.913 42.08,38.027 42.08,41.768C42.08,45.509 38.211,48.623 36.471,48.623C34.731,48.623 32.732,48.623 32.732,48.623Z" style="fill:#64e5ff;"/></g></g></svg>