<svg viewBox="0 0 96 96" xmlns="http://www.w3.org/2000/svg" fill-rule="evenodd" clip-rule="evenodd" stroke-linejoin="round" stroke-miterlimit="1.414"><path d="M81.249 9.655A4.657 4.657 0 0 0 76.594 5H19.406a4.657 4.657 0 0 0-4.655 4.655v76.69A4.657 4.657 0 0 0 19.406 91h57.188a4.657 4.657 0 0 0 4.655-4.655V9.655z" fill="#00487f"/><path d="M81.249 71.874v10.221H14.751V72.2l33.88-58.295 32.618 57.969z" fill="#15598e"/><path d="M15.357 79.849l33.204-57.497 3.667 6.337-18.327 31.86 11.176 19.3h-29.72z" fill="#27a1fa"/><path d="M78.086 73.583H43.289l-7.15-12.294h34.932l7.015 12.294zM70.179 59.75H48.782L42.34 48.714l10.787-18.377L70.179 59.75z" fill="#27a1fa"/><path d="M46.885 59.75l-5.444-9.488-3.545 5.993c-.452.761-.696 1.51-.25 2.347.373.7 1.011 1.148 1.898 1.148h7.341z" fill="#1cffb9"/><path d="M28.313 37.65c-1.793 0-3.244-.495-4.351-1.485-1.108-.99-1.661-2.417-1.661-4.28 0-2.004.656-3.489 1.969-4.456 1.312-.967 3.293-1.579 5.941-1.837a66.823 66.823 0 0 1 2.602-.281 46.81 46.81 0 0 0 1.248-.124v-1.019c0-1.172-.27-2.024-.809-2.558-.539-.533-1.359-.799-2.461-.799-1.57 0-3.51.439-5.818 1.318a505.462 505.462 0 0 0-1.16-3.182c2.273-.972 4.734-1.459 7.382-1.459 2.602 0 4.494.566 5.678 1.697 1.184 1.13 1.775 2.961 1.775 5.493v12.603h-3.41a51.66 51.66 0 0 0-.386-1.177c-.247-.739-.37-1.131-.37-1.178-.961.937-1.901 1.626-2.821 2.065-.92.44-2.036.659-3.348.659zm1.248-3.269c1.066 0 1.995-.255 2.786-.765.791-.51 1.356-1.128 1.696-1.854v-3.727c-.035 0-.343.024-.923.07-.58.047-.893.071-.94.071-1.864.164-3.229.515-4.096 1.054-.867.54-1.301 1.407-1.301 2.602 0 .82.24 1.45.721 1.89.48.439 1.166.659 2.057.659zm14.959 2.9v-16.26h-3.059l.299-2.707 2.76-.351v-1.072c0-1.172.108-2.174.325-3.006.217-.832.571-1.544 1.063-2.136.492-.592 1.152-1.031 1.978-1.318.826-.287 1.843-.431 3.05-.431 1.171 0 2.367.111 3.585.334l-.404 3.428c-.961-.129-1.717-.194-2.267-.194-.985 0-1.685.238-2.101.712-.416.475-.624 1.263-.624 2.365v1.318h4.535v3.058h-4.535v16.26H44.52zm18.949.369c-2.52 0-4.5-.925-5.942-2.777-1.441-1.852-2.162-4.324-2.162-7.418 0-3 .718-5.411 2.154-7.233 1.435-1.823 3.413-2.734 5.932-2.734 2.742 0 4.682.973 5.819 2.918a32.51 32.51 0 0 1-.176-3.322v-6.24l4.605-.299v26.736h-3.99l-.51-2.636c-.199.316-.384.588-.553.817a5.86 5.86 0 0 1-.748.791 4.368 4.368 0 0 1-1.063.721c-.381.181-.861.339-1.441.474a8.509 8.509 0 0 1-1.925.202zm1.09-3.498c3.093 0 4.664-2.103 4.711-6.31 0-2.379-.399-4.113-1.196-5.203-.797-1.09-1.986-1.635-3.568-1.635-1.383 0-2.487.554-3.314 1.661-.826 1.107-1.239 2.739-1.239 4.896 0 2.144.413 3.779 1.239 4.904.827 1.125 1.949 1.687 3.367 1.687z" fill="#80ffd7" fill-rule="nonzero"/></svg>