<svg viewBox="0 0 96 96" xmlns="http://www.w3.org/2000/svg" fill-rule="evenodd" clip-rule="evenodd" stroke-linejoin="round" stroke-miterlimit="1.414"><path d="M81.25 9.655A4.657 4.657 0 0 0 76.595 5h-57.19a4.657 4.657 0 0 0-4.655 4.655v76.69A4.657 4.657 0 0 0 19.405 91h57.19a4.657 4.657 0 0 0 4.655-4.655V9.655z" fill="#5a0096"/><path d="M81.25 71.8v9.965h-66.5v-9.947l33.285-57.583L81.25 71.8z" fill="#8d00bb"/><path d="M15.171 79.685l13.936-24.056h7.21L22.451 79.685h-7.28zm21.354-36.954l6.518 11.301H30.005l6.52-11.301zm.902-1.526l10.608-18.442 10.261 17.888-10.541 18.442-10.328-17.888zm21.805 1.04L45.747 65.611h26.97L59.232 42.245zm14.387 24.891H39.021l3.744 6.379h34.528l-3.674-6.379zm-29.12 12.549L34.411 62.144 24.323 79.685h20.176z" fill="#fb6de5"/><path d="M45.332 57.953c1.194 2.014 1.733 2.384.198 4.994-1.534 2.609-1.597 2.719-4.4 2.719-3.108 0-2.972-.163-4.401-2.621-1.681-2.892-1.229-2.629.05-4.993 1.43-2.645 1.555-2.472 4.45-2.472 2.85 0 2.825.216 4.103 2.373z" fill="#44014c"/></svg>