<svg viewBox="0 0 96 96" xmlns="http://www.w3.org/2000/svg" fill-rule="evenodd" clip-rule="evenodd" stroke-linecap="square" stroke-linejoin="round" stroke-miterlimit="1.414"><path d="M81.25 9.655A4.657 4.657 0 0 0 76.595 5h-57.19a4.657 4.657 0 0 0-4.655 4.655v76.69A4.657 4.657 0 0 0 19.405 91h57.19a4.657 4.657 0 0 0 4.655-4.655V9.655z" fill="#90a959"/><path d="M26.5 52.5h9v-9h-9v9zm-5 5v-19h19v19h-19z" fill="#fff"/><circle cx="65" cy="19" r="7" fill="#fff"/><circle cx="65" cy="77" r="7" fill="#fff"/><path d="M38 41l27-22M38 55l27 22" fill="none" stroke-width="7" stroke="#fff"/></svg>