<svg viewBox="0 0 96 96" xmlns="http://www.w3.org/2000/svg" fill-rule="evenodd" clip-rule="evenodd" stroke-linejoin="round" stroke-miterlimit="1.414"><path d="M81.25 9.655A4.657 4.657 0 0 0 76.595 5h-57.19a4.657 4.657 0 0 0-4.655 4.655v76.69A4.657 4.657 0 0 0 19.405 91h57.19a4.657 4.657 0 0 0 4.655-4.655V9.655z" fill="#d04626"/><path d="M33.931 71.523v-46l17.586-2c6.305-.667 10.552 5.927 10.552 11.311v7.034c0 5.554-3.868 15.926-19.345 13.069v17.586l-8.793-1zm8.793-25.379V33.317c7.503-1.165 10.552-2.022 10.552 5.913 0 7.936-3.107 7.577-10.552 6.914z" fill="#fff"/></svg>