<svg viewBox="0 0 96 96" xmlns="http://www.w3.org/2000/svg" fill-rule="evenodd" clip-rule="evenodd" stroke-linecap="round" stroke-linejoin="round" stroke-miterlimit="1.414"><path d="M81.25 24l-19-19H19.405a4.657 4.657 0 0 0-4.655 4.655v76.69A4.657 4.657 0 0 0 19.405 91h57.19a4.657 4.657 0 0 0 4.655-4.655V24z" fill="#f26b59"/><path d="M81.25 24l-19-19H19.405a4.657 4.657 0 0 0-4.655 4.655v76.69A4.657 4.657 0 0 0 19.405 91h57.19a4.657 4.657 0 0 0 4.655-4.655V24z" fill="#f26b59"/><path d="M81.25 24l-19-19v14.25A4.752 4.752 0 0 0 67 24h14.25z" fill="#fac3bc"/><path d="M20 48h56M20 75h56m-56 9h56M20 39h56M20 66h56M20 30h56M20 57h56M20 21h38m-38-9h38" fill="none" stroke-width="2" stroke="#fac3bc"/></svg>