<svg viewBox="0 0 96 96" xmlns="http://www.w3.org/2000/svg" fill-rule="evenodd" clip-rule="evenodd" stroke-linejoin="round" stroke-miterlimit="1.414"><path d="M81.25 9.655A4.657 4.657 0 0 0 76.595 5h-57.19a4.657 4.657 0 0 0-4.655 4.655v76.69A4.657 4.657 0 0 0 19.405 91h57.19a4.657 4.657 0 0 0 4.655-4.655V9.655z" fill="#2b7246"/><path d="M41.466 47.121L30.914 70.5l9.552 1L47.5 55.914 54.534 72.5l10.552 1-10.552-26.379L65.086 22.5l-10.552 1L47.5 40.086 40.466 24.5l-9.552 1 10.552 21.621z" fill="#fff"/></svg>