<svg viewBox="0 0 96 96" xmlns="http://www.w3.org/2000/svg" fill-rule="evenodd" clip-rule="evenodd" stroke-linejoin="round" stroke-miterlimit="1.414"><path d="M81.25 9.655A4.657 4.657 0 0 0 76.595 5h-57.19a4.657 4.657 0 0 0-4.655 4.655v76.69A4.657 4.657 0 0 0 19.405 91h57.19a4.657 4.657 0 0 0 4.655-4.655V9.655z" fill="#d2dcbb"/><path d="M37.265 91s-2.147-1.272-2.147-16.103c0-14.472-2.271-27.324-17.177-49.382C37.058 37.12 43.706 77.044 43.706 77.044S51.752 41.613 73.765 18C57.319 45.112 59.809 83.485 59.809 83.485s7.38-29.026 18.25-33.279C65.728 65.088 66.25 91 66.25 91H37.265z" fill="#90a959"/></svg>