<svg viewBox="0 0 96 96" xmlns="http://www.w3.org/2000/svg" fill-rule="evenodd" clip-rule="evenodd" stroke-linejoin="round" stroke-miterlimit="1.414"><path d="M81.249 9.655A4.657 4.657 0 0 0 76.594 5H19.406a4.657 4.657 0 0 0-4.655 4.655v76.69A4.657 4.657 0 0 0 19.406 91h57.188a4.657 4.657 0 0 0 4.655-4.655V9.655z" fill="#00487f"/><path d="M81.249 71.874v10.221H14.751V72.2l33.88-58.295 32.618 57.969z" fill="#15598e"/><path d="M15.357 79.849l33.204-57.497 3.667 6.337-18.327 31.86 11.176 19.3h-29.72z" fill="#27a1fa"/><path d="M78.086 73.583H43.289l-7.15-12.294h34.932l7.015 12.294zM70.179 59.75H48.782L42.34 48.714l10.787-18.377L70.179 59.75z" fill="#27a1fa"/><path d="M46.885 59.75l-5.444-9.488-3.545 5.993c-.452.761-.696 1.51-.25 2.347.373.7 1.011 1.148 1.898 1.148h7.341z" fill="#1cffb9"/></svg>