<svg viewBox="0 0 96 96" xmlns="http://www.w3.org/2000/svg" fill-rule="evenodd" clip-rule="evenodd" stroke-linejoin="round" stroke-miterlimit="1.414"><path d="M81.25 9.655A4.657 4.657 0 0 0 76.595 5h-57.19a4.657 4.657 0 0 0-4.655 4.655v76.69A4.657 4.657 0 0 0 19.405 91h57.19a4.657 4.657 0 0 0 4.655-4.655V9.655z" fill="#5a0096"/><path d="M81.25 71.8v9.965h-66.5v-9.947l33.285-57.583L81.25 71.8z" fill="#8d00bb"/><path d="M15.171 79.685l13.936-24.056h7.21L22.451 79.685h-7.28zm21.354-36.954l6.518 11.301H30.005l6.52-11.301zm.902-1.526l10.608-18.442 10.261 17.888-10.541 18.442-10.328-17.888zm21.805 1.04L45.747 65.611h26.97L59.232 42.245zm14.387 24.891H39.021l3.744 6.379h34.528l-3.674-6.379zm-29.12 12.549L34.411 62.144 24.323 79.685h20.176z" fill="#fb6de5"/><path d="M45.332 57.953c1.194 2.014 1.733 2.384.198 4.994-1.534 2.609-1.597 2.719-4.4 2.719-3.108 0-2.972-.163-4.401-2.621-1.681-2.892-1.229-2.629.05-4.993 1.43-2.645 1.555-2.472 4.45-2.472 2.85 0 2.825.216 4.103 2.373z" fill="#44014c"/><path d="M27.68 37.65c-1.793 0-3.243-.495-4.351-1.485-1.107-.99-1.661-2.417-1.661-4.28 0-2.004.656-3.489 1.969-4.456 1.312-.967 3.293-1.579 5.941-1.837a66.823 66.823 0 0 1 2.602-.281 46.81 46.81 0 0 0 1.248-.124v-1.019c0-1.172-.27-2.024-.809-2.558-.539-.533-1.359-.799-2.461-.799-1.57 0-3.51.439-5.818 1.318a505.462 505.462 0 0 0-1.16-3.182c2.273-.972 4.734-1.459 7.383-1.459 2.601 0 4.494.566 5.677 1.697 1.184 1.13 1.776 2.961 1.776 5.493v12.603h-3.411a51.66 51.66 0 0 0-.386-1.177c-.246-.739-.369-1.131-.369-1.178-.961.937-1.902 1.626-2.822 2.065-.92.44-2.036.659-3.348.659zm1.248-3.269c1.066 0 1.995-.255 2.786-.765.791-.51 1.356-1.128 1.696-1.854v-3.727c-.035 0-.343.024-.923.07-.58.047-.893.071-.94.071-1.863.164-3.229.515-4.096 1.054-.867.54-1.301 1.407-1.301 2.602 0 .82.241 1.45.721 1.89.481.439 1.166.659 2.057.659zm14.959 2.9v-16.26h-3.059l.299-2.707 2.76-.351v-1.072c0-1.172.108-2.174.325-3.006.217-.832.571-1.544 1.063-2.136.493-.592 1.152-1.031 1.978-1.318.826-.287 1.843-.431 3.05-.431a19.9 19.9 0 0 1 3.586.334l-.405 3.428c-.961-.129-1.716-.194-2.267-.194-.985 0-1.685.238-2.101.712-.416.475-.624 1.263-.624 2.365v1.318h4.535v3.058h-4.535v16.26h-4.605zm12.129 8.033V17.963h3.955l.492 2.707a6.517 6.517 0 0 1 2.522-2.364c1.049-.557 2.218-.835 3.507-.835 1.582 0 2.974.439 4.175 1.318 1.201.879 2.112 2.077 2.733 3.595.621 1.517.932 3.231.932 5.141 0 2.989-.724 5.423-2.171 7.304-1.447 1.881-3.407 2.821-5.88 2.821-1.218 0-2.323-.243-3.313-.729a7.234 7.234 0 0 1-2.488-1.978c.094 1.688.141 2.637.141 2.848v7.295l-4.605.228zm9.281-11.179c1.371 0 2.452-.574 3.243-1.723.791-1.148 1.187-2.789 1.187-4.922 0-2.168-.399-3.797-1.196-4.886-.797-1.09-1.904-1.635-3.322-1.635-3.047 0-4.588 2.074-4.623 6.222 0 2.391.395 4.146 1.186 5.265.791 1.119 1.966 1.679 3.525 1.679z" fill="#fecff7" fill-rule="nonzero"/></svg>