<svg viewBox="0 0 96 96" xmlns="http://www.w3.org/2000/svg" fill-rule="evenodd" clip-rule="evenodd" stroke-linejoin="round" stroke-miterlimit="1.414"><path d="M81.25 24l-19-19H19.405a4.657 4.657 0 0 0-4.655 4.655v76.69A4.657 4.657 0 0 0 19.405 91h57.19a4.657 4.657 0 0 0 4.655-4.655V24z" fill="#f26b59"/><path d="M81.25 24l-19-19v14.25A4.752 4.752 0 0 0 67 24h14.25z" fill="#fac3bc"/><path d="M67 24h-.061l-.062-.002-.06-.001-.061-.003-.061-.004-.06-.004-.06-.005-.06-.006-.06-.006-.06-.007-.059-.008-.059-.009-.117-.019-.117-.023-.115-.025-.115-.028-.113-.03-.112-.034-.111-.036-.11-.038-.108-.042-.107-.044-.106-.046-.105-.049-.103-.051-.101-.054-.101-.056-.098-.058-.097-.061-.096-.063-.094-.065-.092-.067-.091-.07-.089-.071-.087-.074-.085-.076-.084-.077-.081-.08-.08-.081-.077-.084-.076-.085-.074-.087-.071-.089-.07-.091-.067-.092-.065-.094-.063-.096-.061-.097-.058-.098-.056-.101-.054-.101-.051-.103-.049-.105-.046-.106-.044-.107-.042-.108-.038-.11-.036-.111-.034-.112-.03-.113-.028-.115-.025-.115-.023-.117-.019-.117-.009-.059-.008-.059-.007-.06-.006-.06-.006-.06-.005-.06-.004-.06-.004-.061-.003-.061-.001-.06-.002-.062V5l19 19H67zm.002-.5h13.041L62.75 6.207v13.098l.001.055.002.054.003.055.003.054.003.054.005.054.005.054.006.053.006.054.007.053.008.051.017.106.02.104.023.104.025.102.027.101.03.1.032.099.035.098.037.097.039.096.041.095.044.093.046.093.048.091.05.089.052.089.055.086.056.086.058.084.061.083.062.081.064.079.066.078.068.077.069.074.071.074.074.071.074.069.077.068.078.066.079.064.081.062.083.061.084.058.086.056.086.055.089.052.089.05.091.048.093.046.093.044.095.041.096.039.097.037.098.035.099.032.1.03.101.027.102.025.104.023.104.02.106.017.051.008.054.007.053.006.053.006.054.005.054.005.054.003.054.003.055.003.054.002.055.001h.057z" fill="#8c8c8c"/></svg>