<svg viewBox="0 0 96 96" xmlns="http://www.w3.org/2000/svg" fill-rule="evenodd" clip-rule="evenodd" stroke-linejoin="round" stroke-miterlimit="1.414"><path d="M81.25 9.655A4.657 4.657 0 0 0 76.595 5h-57.19a4.657 4.657 0 0 0-4.655 4.655v76.69A4.657 4.657 0 0 0 19.405 91h57.19a4.657 4.657 0 0 0 4.655-4.655V9.655z" fill="#ebc9ae"/><path d="M48 80.5L25.25 74l-5.417-58.5h56.334L70.75 74 48 80.5z" fill="#d28445"/><path d="M48 68.583L32.833 64.25 31.75 52.333h7.583l1.084 6.5L48 61l7.583-2.167 1.084-9.75H31.75l-2.167-21.666h36.834L65.333 35H38.25v6.5h27.083l-2.166 22.75L48 68.583z" fill="#fff"/></svg>