<svg viewBox="0 0 96 96" xmlns="http://www.w3.org/2000/svg" fill-rule="evenodd" clip-rule="evenodd" stroke-linejoin="round" stroke-miterlimit="1.414"><path d="M81.25 9.655A4.657 4.657 0 0 0 76.595 5h-57.19a4.657 4.657 0 0 0-4.655 4.655v76.69A4.657 4.657 0 0 0 19.405 91h57.19a4.657 4.657 0 0 0 4.655-4.655V9.655z" fill="#0c64c2"/><path d="M52.051 59.841s3.761 2.492 6.855 2.492c3.093 0 3.739-2.709 3.739-3.116 0-3.743-10.594-2.806-10.594-11.84 0-4.578 2.922-8.102 8.724-8.102 5.803 0 6.855 1.87 6.855 1.87v4.985s-3.69-1.869-6.231-1.869c-2.542 0-3.74 2.004-3.74 3.116 0 4.321 11.841 1.941 11.841 11.84 0 2.14-.611 7.479-10.594 7.479-4.743 0-6.855-1.87-6.855-1.87v-4.985zM26.5 66.696V29.304h12.464c1.011 0 9.971 1.355 9.971 12.464 0 7.564-4.423 11.841-11.218 11.841h-4.985v13.087H26.5zm6.232-18.073v-13.71h3.739c2.066 0 5.609 3.114 5.609 6.855 0 3.741-3.869 6.855-5.609 6.855h-3.739z" fill="#64e5ff"/></svg>